<svg width="165" height="182" viewBox="0 0 165 182" fill="none" xmlns="http://www.w3.org/2000/svg">
<path d="M66 2V14.6M97.5 10.442L91.2 21.3536M120.558 33.5L109.646 39.8M129 65H116.4M120.558 96.5L109.646 90.2M97.5 119.558L91.2 108.646M66 128V115.4M34.5 119.558L40.8 108.646M11.442 96.5L22.3536 90.2M3 65H15.6M11.442 33.5L22.3536 39.8M34.5 10.442L40.8 21.3536" stroke="black" stroke-width="4" stroke-linecap="round" stroke-linejoin="round"/>
<path d="M7.128 164.144C6.04 164.144 5.064 163.968 4.2 163.616C3.336 163.248 2.648 162.664 2.136 161.864C1.624 161.048 1.368 159.968 1.368 158.624V147.44C1.368 147.088 1.528 146.84 1.848 146.696C2.168 146.536 2.528 146.456 2.928 146.456C3.312 146.456 3.664 146.536 3.984 146.696C4.32 146.84 4.488 147.088 4.488 147.44V158.624C4.488 159.568 4.72 160.272 5.184 160.736C5.648 161.184 6.296 161.408 7.128 161.408C7.944 161.408 8.584 161.184 9.048 160.736C9.528 160.272 9.768 159.568 9.768 158.624V147.44C9.768 147.088 9.92 146.84 10.224 146.696C10.544 146.536 10.912 146.456 11.328 146.456C11.712 146.456 12.064 146.536 12.384 146.696C12.72 146.84 12.888 147.088 12.888 147.44V158.624C12.888 159.968 12.632 161.048 12.12 161.864C11.608 162.664 10.912 163.248 10.032 163.616C9.168 163.968 8.2 164.144 7.128 164.144ZM21.0454 169.304C20.6134 169.304 20.2534 169.2 19.9654 168.992C19.6774 168.784 19.5334 168.56 19.5334 168.32V153.56C19.5334 153.272 19.6774 153.04 19.9654 152.864C20.2534 152.688 20.6054 152.6 21.0214 152.6C21.4374 152.6 21.7734 152.688 22.0294 152.864C22.3014 153.04 22.4374 153.272 22.4374 153.56V154.28C22.7094 153.816 23.1254 153.4 23.6854 153.032C24.2454 152.648 24.9094 152.456 25.6774 152.456C26.4934 152.456 27.2214 152.68 27.8614 153.128C28.5174 153.56 29.0294 154.144 29.3974 154.88C29.7814 155.616 29.9734 156.432 29.9734 157.328V159.296C29.9734 160.144 29.7814 160.944 29.3974 161.696C29.0134 162.448 28.5014 163.056 27.8614 163.52C27.2374 163.984 26.5414 164.216 25.7734 164.216C25.0694 164.216 24.4294 164.024 23.8534 163.64C23.2774 163.256 22.8694 162.816 22.6294 162.32V168.32C22.6294 168.56 22.4774 168.784 22.1734 168.992C21.8694 169.2 21.4934 169.304 21.0454 169.304ZM24.7654 161.504C25.1494 161.504 25.4934 161.4 25.7974 161.192C26.1174 160.968 26.3734 160.688 26.5654 160.352C26.7734 160.016 26.8774 159.664 26.8774 159.296V157.328C26.8774 156.96 26.7814 156.616 26.5894 156.296C26.3974 155.976 26.1334 155.712 25.7974 155.504C25.4774 155.28 25.1174 155.168 24.7174 155.168C24.3654 155.168 24.0294 155.256 23.7094 155.432C23.4054 155.608 23.1494 155.856 22.9414 156.176C22.7334 156.496 22.6294 156.88 22.6294 157.328V159.728C22.6294 159.888 22.7174 160.112 22.8934 160.4C23.0854 160.672 23.3414 160.928 23.6614 161.168C23.9814 161.392 24.3494 161.504 24.7654 161.504ZM40.9787 164.216C39.7627 164.216 38.7707 164 38.0027 163.568C37.2347 163.136 36.6667 162.552 36.2987 161.816C35.9307 161.064 35.7467 160.224 35.7467 159.296V157.376C35.7467 156.448 35.9227 155.616 36.2747 154.88C36.6427 154.128 37.2107 153.536 37.9787 153.104C38.7627 152.672 39.7467 152.456 40.9307 152.456C41.6827 152.456 42.3467 152.544 42.9227 152.72C43.4987 152.896 43.9547 153.128 44.2907 153.416C44.6267 153.704 44.7947 154.008 44.7947 154.328C44.7947 154.52 44.7387 154.736 44.6267 154.976C44.5307 155.2 44.3867 155.4 44.1947 155.576C44.0187 155.752 43.8107 155.84 43.5707 155.84C43.3947 155.84 43.2107 155.784 43.0187 155.672C42.8427 155.56 42.6107 155.448 42.3227 155.336C42.0347 155.224 41.6507 155.168 41.1707 155.168C40.3547 155.168 39.7627 155.368 39.3947 155.768C39.0267 156.152 38.8427 156.688 38.8427 157.376V159.296C38.8427 159.984 39.0267 160.528 39.3947 160.928C39.7627 161.312 40.3627 161.504 41.1947 161.504C41.6907 161.504 42.0747 161.44 42.3467 161.312C42.6187 161.184 42.8427 161.064 43.0187 160.952C43.2107 160.84 43.4027 160.784 43.5947 160.784C43.8827 160.784 44.1227 160.864 44.3147 161.024C44.5227 161.184 44.6747 161.384 44.7707 161.624C44.8827 161.848 44.9387 162.056 44.9387 162.248C44.9387 162.568 44.7627 162.88 44.4107 163.184C44.0747 163.488 43.6027 163.736 42.9947 163.928C42.4027 164.12 41.7307 164.216 40.9787 164.216ZM55.3723 164.216C54.4443 164.216 53.5883 163.992 52.8043 163.544C52.0203 163.08 51.3883 162.472 50.9083 161.72C50.4283 160.968 50.1883 160.16 50.1883 159.296V157.328C50.1883 156.464 50.4203 155.664 50.8843 154.928C51.3483 154.176 51.9723 153.576 52.7563 153.128C53.5563 152.68 54.4283 152.456 55.3723 152.456C56.3163 152.456 57.1803 152.68 57.9643 153.128C58.7643 153.56 59.3963 154.144 59.8603 154.88C60.3403 155.616 60.5803 156.432 60.5803 157.328V159.296C60.5803 160.144 60.3403 160.944 59.8603 161.696C59.3803 162.448 58.7403 163.056 57.9403 163.52C57.1563 163.984 56.3003 164.216 55.3723 164.216ZM55.3723 161.504C55.7563 161.504 56.1083 161.4 56.4283 161.192C56.7483 160.984 57.0043 160.712 57.1963 160.376C57.3883 160.024 57.4843 159.664 57.4843 159.296V157.328C57.4843 156.96 57.3883 156.616 57.1963 156.296C57.0043 155.976 56.7483 155.712 56.4283 155.504C56.1243 155.28 55.7723 155.168 55.3723 155.168C54.9883 155.168 54.6363 155.272 54.3163 155.48C53.9963 155.688 53.7403 155.96 53.5483 156.296C53.3723 156.616 53.2843 156.96 53.2843 157.328V159.296C53.2843 159.664 53.3723 160.024 53.5483 160.376C53.7403 160.712 53.9963 160.984 54.3163 161.192C54.6363 161.4 54.9883 161.504 55.3723 161.504ZM68.286 164C67.838 164 67.47 163.896 67.182 163.688C66.894 163.48 66.75 163.248 66.75 162.992V153.56C66.75 153.272 66.894 153.04 67.182 152.864C67.47 152.688 67.838 152.6 68.286 152.6C68.67 152.6 68.99 152.688 69.246 152.864C69.518 153.04 69.654 153.272 69.654 153.56V154.28C69.926 153.816 70.326 153.4 70.854 153.032C71.382 152.648 72.046 152.456 72.846 152.456C73.534 152.456 74.142 152.68 74.67 153.128C75.198 153.576 75.59 154.152 75.846 154.856C76.262 154.04 76.79 153.44 77.43 153.056C78.086 152.656 78.758 152.456 79.446 152.456C80.182 152.456 80.87 152.648 81.51 153.032C82.166 153.4 82.694 153.952 83.094 154.688C83.51 155.408 83.718 156.288 83.718 157.328V162.992C83.718 163.248 83.566 163.48 83.262 163.688C82.958 163.896 82.59 164 82.158 164C81.742 164 81.382 163.896 81.078 163.688C80.774 163.48 80.622 163.248 80.622 162.992V157.328C80.622 156.848 80.526 156.448 80.334 156.128C80.158 155.808 79.918 155.568 79.614 155.408C79.31 155.232 78.998 155.144 78.678 155.144C78.374 155.144 78.078 155.232 77.79 155.408C77.502 155.568 77.262 155.808 77.07 156.128C76.878 156.448 76.782 156.84 76.782 157.304V163.016C76.782 163.368 76.614 163.624 76.278 163.784C75.958 163.928 75.606 164 75.222 164C74.87 164 74.526 163.928 74.19 163.784C73.854 163.624 73.686 163.368 73.686 163.016V157.328C73.686 156.88 73.59 156.496 73.398 156.176C73.222 155.856 72.982 155.608 72.678 155.432C72.39 155.256 72.078 155.168 71.742 155.168C71.422 155.168 71.118 155.248 70.83 155.408C70.542 155.568 70.302 155.808 70.11 156.128C69.934 156.448 69.846 156.848 69.846 157.328V162.992C69.846 163.248 69.694 163.48 69.39 163.688C69.086 163.896 68.718 164 68.286 164ZM91.7516 150.056C91.2876 150.056 90.8876 149.904 90.5516 149.6C90.2156 149.28 90.0476 148.928 90.0476 148.544C90.0476 148.128 90.2156 147.776 90.5516 147.488C90.8876 147.184 91.2876 147.032 91.7516 147.032C92.2316 147.032 92.6316 147.184 92.9516 147.488C93.2716 147.776 93.4316 148.128 93.4316 148.544C93.4316 148.928 93.2716 149.28 92.9516 149.6C92.6316 149.904 92.2316 150.056 91.7516 150.056ZM91.7516 164C91.3036 164 90.9356 163.896 90.6476 163.688C90.3596 163.48 90.2156 163.248 90.2156 162.992V153.56C90.2156 153.272 90.3596 153.04 90.6476 152.864C90.9356 152.688 91.3036 152.6 91.7516 152.6C92.1836 152.6 92.5516 152.688 92.8556 152.864C93.1596 153.04 93.3116 153.272 93.3116 153.56V162.992C93.3116 163.248 93.1596 163.48 92.8556 163.688C92.5516 163.896 92.1836 164 91.7516 164ZM101.413 164C100.965 164 100.597 163.896 100.309 163.688C100.021 163.48 99.8766 163.248 99.8766 162.992V153.56C99.8766 153.272 100.021 153.04 100.309 152.864C100.597 152.688 100.965 152.6 101.413 152.6C101.797 152.6 102.117 152.688 102.373 152.864C102.645 153.04 102.781 153.272 102.781 153.56V154.28C103.021 153.816 103.413 153.4 103.957 153.032C104.517 152.648 105.197 152.456 105.997 152.456C106.749 152.456 107.437 152.68 108.061 153.128C108.685 153.56 109.181 154.144 109.549 154.88C109.933 155.616 110.125 156.432 110.125 157.328V162.992C110.125 163.328 109.965 163.584 109.645 163.76C109.325 163.92 108.965 164 108.565 164C108.213 164 107.869 163.92 107.533 163.76C107.197 163.584 107.029 163.328 107.029 162.992V157.328C107.029 156.96 106.933 156.616 106.741 156.296C106.565 155.976 106.317 155.712 105.997 155.504C105.677 155.28 105.325 155.168 104.941 155.168C104.621 155.168 104.309 155.256 104.005 155.432C103.701 155.608 103.453 155.856 103.261 156.176C103.069 156.496 102.973 156.88 102.973 157.328V162.992C102.973 163.248 102.821 163.48 102.517 163.688C102.213 163.896 101.845 164 101.413 164ZM121.127 169.304C120.183 169.304 119.303 169.168 118.487 168.896C117.687 168.64 117.039 168.256 116.543 167.744C116.063 167.232 115.823 166.624 115.823 165.92C115.823 165.312 115.991 164.792 116.327 164.36C116.663 163.944 117.079 163.616 117.575 163.376C117.271 163.232 117.023 163.04 116.831 162.8C116.655 162.544 116.567 162.224 116.567 161.84C116.567 161.392 116.679 161.032 116.903 160.76C117.143 160.472 117.439 160.208 117.791 159.968C117.311 159.6 116.935 159.16 116.663 158.648C116.407 158.12 116.279 157.544 116.279 156.92V156.416C116.279 155.632 116.471 154.944 116.855 154.352C117.255 153.76 117.807 153.296 118.511 152.96C119.231 152.624 120.055 152.456 120.983 152.456C121.511 152.456 122.007 152.52 122.471 152.648C122.935 152.76 123.351 152.928 123.719 153.152C123.991 152.512 124.247 152.08 124.487 151.856C124.727 151.632 124.959 151.52 125.183 151.52C125.567 151.52 125.863 151.632 126.071 151.856C126.295 152.08 126.407 152.288 126.407 152.48C126.407 152.624 126.367 152.752 126.287 152.864C126.223 152.976 126.135 153.072 126.023 153.152C125.863 153.248 125.679 153.368 125.471 153.512C125.263 153.64 125.071 153.824 124.895 154.064C125.183 154.384 125.391 154.744 125.519 155.144C125.663 155.528 125.735 155.952 125.735 156.416V156.92C125.735 157.688 125.535 158.376 125.135 158.984C124.735 159.576 124.175 160.048 123.455 160.4C122.735 160.752 121.911 160.928 120.983 160.928C120.407 160.928 119.887 160.856 119.423 160.712C119.343 160.776 119.271 160.848 119.207 160.928C119.159 161.008 119.135 161.096 119.135 161.192C119.135 161.464 119.311 161.656 119.663 161.768C120.015 161.88 120.463 161.968 121.007 162.032C121.551 162.096 122.127 162.184 122.735 162.296C123.359 162.392 123.943 162.552 124.487 162.776C125.031 163 125.479 163.336 125.831 163.784C126.183 164.216 126.359 164.8 126.359 165.536C126.359 166.432 126.103 167.152 125.591 167.696C125.095 168.256 124.447 168.664 123.647 168.92C122.863 169.176 122.023 169.304 121.127 169.304ZM121.079 167.312C121.703 167.312 122.231 167.16 122.663 166.856C123.111 166.552 123.335 166.144 123.335 165.632C123.335 165.296 123.239 165.024 123.047 164.816C122.855 164.608 122.591 164.448 122.255 164.336C121.935 164.24 121.583 164.16 121.199 164.096C120.815 164.048 120.431 164 120.047 163.952C119.663 164.128 119.351 164.352 119.111 164.624C118.871 164.896 118.751 165.224 118.751 165.608C118.751 166.136 118.975 166.552 119.423 166.856C119.887 167.16 120.439 167.312 121.079 167.312ZM121.031 159.056C121.559 159.056 121.975 158.856 122.279 158.456C122.583 158.056 122.735 157.544 122.735 156.92V156.416C122.735 155.824 122.583 155.328 122.279 154.928C121.991 154.528 121.567 154.328 121.007 154.328C120.463 154.328 120.039 154.528 119.735 154.928C119.447 155.328 119.303 155.824 119.303 156.416V156.896C119.303 157.504 119.447 158.016 119.735 158.432C120.039 158.848 120.471 159.056 121.031 159.056Z" fill="#605E5E"/>
</svg>
